<svg width="73" height="73" viewBox="0 0 73 73" fill="none" xmlns="http://www.w3.org/2000/svg">
<path fill-rule="evenodd" clip-rule="evenodd" d="M62.183 58.8925C48.933 72.1425 27.443 72.1425 14.188 58.8925C0.937988 45.6375 0.937988 24.1525 14.188 10.8975C27.443 -2.3575 48.933 -2.3575 62.183 10.8975C75.433 24.1525 75.433 45.6375 62.183 58.8925Z" fill="#FFC84D"/>
<path fill-rule="evenodd" clip-rule="evenodd" d="M38.189 34.896L65.154 61.861C50.364 76.656 26.009 76.656 11.219 61.861C4.88397 55.521 0.97897 47.151 0.19397 38.221L38.189 34.896Z" fill="#232323"/>
<path fill-rule="evenodd" clip-rule="evenodd" d="M38.189 34.896L0.30901 39.311C-0.19099 35.036 0.0390102 30.706 0.98901 26.501C1.93401 22.301 3.58401 18.291 5.87401 14.641L38.189 34.896Z" fill="white"/>
</svg>
