<svg width="125" height="70" viewBox="0 0 125 70" fill="none" xmlns="http://www.w3.org/2000/svg">
<path fill-rule="evenodd" clip-rule="evenodd" d="M7.42854 0.0579834H116.999C121.094 0.0579834 124.414 3.38298 124.414 7.47798V49.378C124.414 53.473 121.094 56.798 116.999 56.798H109.829L101.749 67.598C99.9535 69.993 96.1835 69.278 95.3985 66.388L92.7735 56.798H7.42854C3.32855 56.798 0.00854492 53.473 0.00854492 49.378V7.47798C0.00854492 3.38298 3.32855 0.0579834 7.42854 0.0579834Z" fill="#FFC84D"/>
<path fill-rule="evenodd" clip-rule="evenodd" d="M68.9399 13.55H112.86V11.05H68.9399V13.55Z" fill="white"/>
<path fill-rule="evenodd" clip-rule="evenodd" d="M17.425 25.385H112.86V22.885H17.425V25.385Z" fill="white"/>
<path fill-rule="evenodd" clip-rule="evenodd" d="M65.97 37.215H112.86V34.715H65.97V37.215Z" fill="white"/>
<path fill-rule="evenodd" clip-rule="evenodd" d="M36.575 37.215H58.04V34.715H36.575V37.215Z" fill="white"/>
</svg>
