<svg width="105" height="70" viewBox="0 0 105 70" fill="none" xmlns="http://www.w3.org/2000/svg">
<path fill-rule="evenodd" clip-rule="evenodd" d="M97.5655 0.192505H7.57051C3.47051 0.192505 0.150513 3.51751 0.150513 7.6125V49.5075C0.150513 53.6075 3.47051 56.9325 7.57051 56.9325H14.7355L22.8155 67.7275C24.6105 70.1275 28.3805 69.4125 29.1705 66.5225L31.7905 56.9325H97.5655C101.666 56.9325 104.986 53.6075 104.986 49.5075V7.6125C104.986 3.51751 101.666 0.192505 97.5655 0.192505Z" fill="#FF4E4A"/>
<path fill-rule="evenodd" clip-rule="evenodd" d="M11.705 13.685H59.59V11.185H11.705V13.685Z" fill="white"/>
<path fill-rule="evenodd" clip-rule="evenodd" d="M69.5 13.685H86.01V11.185H69.5V13.685Z" fill="white"/>
<path fill-rule="evenodd" clip-rule="evenodd" d="M11.705 25.515H45.72V23.015H11.705V25.515Z" fill="white"/>
<path fill-rule="evenodd" clip-rule="evenodd" d="M11.705 37.345H77.42V34.845H11.705V37.345Z" fill="white"/>
</svg>
